<svg xmlns="http://www.w3.org/2000/svg" viewBox="0 0 24 24"><path fill="#4285f4" d="M19.7 4.3a2.9 2.9 0 0 0-2.8-.2L12 7 5.1 4.1a2.9 2.9 0 0 0-3.5 1 2.9 2.9 0 0 0-.6 1.8v10.2A3.1 3.1 0 0 0 4.1 20h1.8v-8.5l6.1 4.6 6.1-4.6V20h1.8a3.1 3.1 0 0 0 3.1-2.9V6.9a2.9 2.9 0 0 0-.5-1.8 2.9 2.9 0 0 0-2.8-.8z"/><path fill="#34a853" d="M19.7 20H21v-8.5l-2.3 1.7v5a1.8 1.8 0 0 0 1 1.8z"/><path fill="#fbbc04" d="M22.5 6.9a2.9 2.9 0 0 0-.6-1.8 2.9 2.9 0 0 0-2.8-.8l-7.1 5.3v3l8.5-6.5z"/><path fill="#ea4335" d="M4.3 20H3v-8.5l2.3 1.7v5a1.8 1.8 0 0 1-1 1.8z"/><path fill="#c5221f" d="M1.5 6.9a2.9 2.9 0 0 1 .6-1.8 2.9 2.9 0 0 1 2.8-.8l7.1 5.3v3l-8.5-6.5z"/></svg>